<?xml version="1.0" standalone="no"?>
<!DOCTYPE svg PUBLIC "-//W3C//DTD SVG 20010904//EN"
 "http://www.w3.org/TR/2001/REC-SVG-20010904/DTD/svg10.dtd">
<svg version="1.0" xmlns="http://www.w3.org/2000/svg"
 width="512.000000pt" height="512.000000pt" viewBox="0 0 512.000000 512.000000"
 preserveAspectRatio="xMidYMid meet">
<metadata>
Created by potrace 1.15, written by Peter Selinger 2001-2017
</metadata>
<g transform="translate(0.000000,512.000000) scale(0.100000,-0.100000)"
fill="#000000" stroke="none">
<path d="M2275 5024 c-1021 -107 -1878 -843 -2130 -1829 -62 -241 -70 -318
-70 -640 0 -322 8 -399 70 -640 215 -841 882 -1520 1722 -1750 249 -69 344
-80 678 -80 334 0 429 11 678 80 840 230 1507 909 1722 1750 62 241 70 318 70
640 0 322 -8 399 -70 640 -215 841 -882 1520 -1721 1750 -233 64 -339 77 -639
80 -148 2 -288 1 -310 -1z m671 -52 c351 -61 644 -177 939 -370 365 -239 655
-569 850 -967 112 -229 177 -435 222 -702 25 -152 26 -570 0 -728 -49 -312
-153 -605 -307 -868 -200 -343 -508 -655 -850 -861 -696 -420 -1578 -461
-2315 -106 -246 118 -460 272 -665 479 -326 326 -527 681 -641 1131 -53 210
-64 310 -64 590 0 277 9 361 65 588 100 410 327 814 627 1118 364 370 835 614
1338 694 179 29 172 28 435 25 194 -2 270 -7 366 -23z"/>
<path d="M2375 4734 c-229 -24 -432 -71 -613 -140 -1195 -460 -1740 -1831
-1181 -2974 207 -425 529 -757 949 -978 123 -65 318 -142 359 -142 39 0 87 23
101 49 6 12 10 108 10 242 l0 221 -27 -6 c-16 -4 -89 -10 -163 -13 -117 -5
-147 -3 -219 16 -156 39 -263 127 -328 269 -71 153 -139 240 -245 313 -87 60
-101 100 -42 119 116 39 305 -66 399 -220 49 -81 150 -173 222 -201 84 -34
238 -34 341 0 53 17 72 28 72 41 0 43 44 155 84 213 l43 62 -109 18 c-492 80
-757 313 -849 748 -32 150 -32 419 -1 533 29 104 81 210 143 293 l51 66 -16
64 c-36 142 -30 300 18 443 l21 65 58 3 c108 6 309 -69 476 -178 l64 -41 131
25 c150 30 301 46 421 46 120 0 271 -16 421 -46 l131 -25 64 41 c167 109 368
184 476 178 l58 -3 21 -65 c48 -143 54 -301 18 -443 l-16 -64 51 -66 c62 -83
114 -189 143 -293 31 -114 31 -382 -1 -533 -43 -206 -112 -341 -236 -467 -149
-151 -358 -244 -642 -284 -46 -7 -83 -15 -83 -17 0 -3 14 -21 31 -41 18 -20
43 -59 56 -88 46 -100 53 -178 53 -556 0 -220 4 -356 10 -369 14 -26 62 -49
101 -49 18 0 84 21 148 46 503 199 913 574 1149 1049 105 211 162 386 204 624
29 170 32 500 5 666 -62 373 -197 695 -414 983 -206 275 -472 493 -788 647
-216 105 -405 165 -635 200 -102 15 -414 27 -495 19z"/>
</g>
</svg>
